                                                                        S      1
,,,4HSPAR,22HAutoCAD 2019 - English,62HAutodesk Translation Framework DWG      1
G producer (atf_dwg_producer),32,38,7,99,15,,1.,2,2HMM,1,0.08,15H2021020G      2
8.113551,0.01,10000.,,7Hunknown,11,0,15H20210119.104003;                G      3
     186       1                       0                        00000000D      1
     186            -109       1       0                               0D      2
     186       2                       0                        00000000D      3
     186            -109       1       0                               0D      4
     186       3                       0                        00000000D      5
     186            -109       1       0                               0D      6
     514       4                                                00010000D      7
     514                       1       1                               0D      8
     514       5                                                00010000D      9
     514                       1       1                               0D     10
     514       6                                                00010000D     11
     514                       1       1                               0D     12
     510       7                                                00010000D     13
     510            -109       1       1                               0D     14
     510       8                                                00010000D     15
     510            -109       1       1                               0D     16
     510       9                                                00010000D     17
     510            -109       1       1                               0D     18
     510      10                                                00010000D     19
     510            -109       1       1                               0D     20
     510      11                                                00010000D     21
     510            -109       1       1                               0D     22
     510      12                                                00010000D     23
     510            -109       1       1                               0D     24
     510      13                                                00010000D     25
     510            -109       1       1                               0D     26
     510      14                                                00010000D     27
     510            -109       1       1                               0D     28
     510      15                                                00010000D     29
     510            -109       1       1                               0D     30
     508      16                                                00010000D     31
     508                       1       1                               0D     32
     508      17                                                00010000D     33
     508                       1       1                               0D     34
     508      18                                                00010000D     35
     508                       1       1                               0D     36
     508      19                                                00010000D     37
     508                       1       1                               0D     38
     508      20                                                00010000D     39
     508                       1       1                               0D     40
     508      21                                                00010000D     41
     508                       1       1                               0D     42
     508      22                                                00010000D     43
     508                       1       1                               0D     44
     508      23                                                00010000D     45
     508                       1       1                               0D     46
     508      24                                                00010000D     47
     508                       2       1                               0D     48
     126      26                                                00010000D     49
     126       0              10       0                               0D     50
     126      36                                                00010000D     51
     126       0               2       0                               0D     52
     126      38                                                00010000D     53
     126       0              10       0                               0D     54
     126      48                                                00010000D     55
     126       0              10       0                               0D     56
     126      58                                                00010000D     57
     126       0               2       0                               0D     58
     126      60                                                00010000D     59
     126       0              10       0                               0D     60
     126      70                                                00010000D     61
     126       0               5       0                               0D     62
     126      75                                                00010000D     63
     126       0               8       0                               0D     64
     126      83                                                00010000D     65
     126       0               6       0                               0D     66
     126      89                                                00010000D     67
     126       0               8       0                               0D     68
     126      97                                                00010000D     69
     126       0               4       0                               0D     70
     128     101                                                00010000D     71
     128       0    -109      12       0                               0D     72
     128     113                                                00010000D     73
     128       0    -109       3       0                               0D     74
     128     116                                                00010000D     75
     128       0    -109       4       0                               0D     76
     128     120                                                00010000D     77
     128       0    -109      14       0                               0D     78
     128     134                                                00010000D     79
     128       0    -109       4       0                               0D     80
     128     138                                                00010000D     81
     128       0    -109       4       0                               0D     82
     128     142                                                00010000D     83
     128       0    -109       4       0                               0D     84
     128     146                                                00010000D     85
     128       0    -109       4       0                               0D     86
     128     150                                                00010000D     87
     128       0    -109      15       0                               0D     88
     502     165                                                00010000D     89
     502                       2       1                               0D     90
     502     167                                                00010000D     91
     502                       2       1                               0D     92
     502     169                                                00010000D     93
     502                       2       1                               0D     94
     504     171                                                00010001D     95
     504                       1       1                               0D     96
     504     172                                                00010001D     97
     504                       1       1                               0D     98
     504     173                                                00010001D     99
     504                       2       1                               0D    100
     406     175                                                00000000D    101
     406                       1      15                               0D    102
     406     176                                                00000000D    103
     406                       1      15                               0D    104
     406     177                                                00000000D    105
     406                       1      15                               0D    106
     406     178                       0                        00000000D    107
     406                       1       3                               0D    108
     314     179                                                00000200D    109
     314                       1       0                               0D    110
186,7,1,0,0,1,101;                                                     1P      1
186,9,1,0,0,1,103;                                                     3P      2
186,11,1,0,0,1,105;                                                    5P      3
514,3,13,1,15,1,17,1;                                                  7P      4
514,3,19,1,21,1,23,1;                                                  9P      5
514,3,25,1,27,1,29,1;                                                 11P      6
510,71,1,1,31;                                                        13P      7
510,73,1,1,33;                                                        15P      8
510,75,1,1,35;                                                        17P      9
510,77,1,1,37;                                                        19P     10
510,79,1,1,39;                                                        21P     11
510,81,1,1,41;                                                        23P     12
510,83,1,1,43;                                                        25P     13
510,85,1,1,45;                                                        27P     14
510,87,1,1,47;                                                        29P     15
508,4,0,95,1,0,0,0,95,2,1,0,0,95,3,0,0,0,95,2,0,0;                    31P     16
508,1,0,95,3,1,0;                                                     33P     17
508,1,0,95,1,1,0;                                                     35P     18
508,4,0,97,1,0,0,0,97,2,1,0,0,97,3,1,0,0,97,2,0,0;                    37P     19
508,1,0,97,1,1,0;                                                     39P     20
508,1,0,97,3,0,0;                                                     41P     21
508,2,0,99,1,0,0,0,99,2,0,0;                                          43P     22
508,2,0,99,3,0,0,0,99,4,0,0;                                          45P     23
508,6,0,99,1,1,0,0,99,5,1,0,0,99,4,1,0,0,99,3,1,0,0,99,5,0,0,0,       47P     24
99,2,1,0;                                                             47P     25
126,8,2,0,1,0,0,-3.14159265358979,-3.14159265358979,                  49P     26
-3.14159265358979,-1.5707963267949,-1.5707963267949,0.,0.,            49P     27
1.5707963267949,1.5707963267949,3.14159265358979,                     49P     28
3.14159265358979,3.14159265358979,1.,0.707106781186548,1.,            49P     29
0.707106781186547,1.,0.707106781186547,1.,0.707106781186548,1.,       49P     30
0.14,-1.71450551880629D-17,-0.135,0.14,-0.14,-0.135,                  49P     31
-8.57252759403147D-18,-0.14,-0.135,-0.14,-0.14,-0.135,-0.14,0.,       49P     32
-0.135,-0.14,0.14,-0.135,-8.57252759403147D-18,0.14,-0.135,0.14,      49P     33
0.14,-0.135,0.14,1.71450551880629D-17,-0.135,-3.14159265358979,       49P     34
3.14159265358979,0.,0.,0.;                                            49P     35
126,1,1,0,0,1,0,-15.25,-15.25,0.,0.,1.,1.,0.14,0.,-0.135,0.14,        51P     36
0.,2.,-15.25,0.,0.,0.,0.;                                             51P     37
126,8,2,0,1,0,0,-3.14159265358979,-3.14159265358979,                  53P     38
-3.14159265358979,-1.5707963267949,-1.5707963267949,0.,0.,            53P     39
1.5707963267949,1.5707963267949,3.14159265358979,                     53P     40
3.14159265358979,3.14159265358979,1.,0.707106781186548,1.,            53P     41
0.707106781186547,1.,0.707106781186547,1.,0.707106781186548,1.,       53P     42
0.14,1.71450551880629D-17,2.,0.14,0.14,2.,-8.57252759403147D-18,      53P     43
0.14,2.,-0.14,0.14,2.,-0.14,0.,2.,-0.14,-0.14,2.,                     53P     44
-8.57252759403147D-18,-0.14,2.,0.14,-0.14,2.,0.14,                    53P     45
-1.71450551880629D-17,2.,-3.14159265358979,3.14159265358979,0.,       53P     46
0.,0.;                                                                53P     47
126,8,2,0,1,0,0,-3.14159265358979,-3.14159265358979,                  55P     48
-3.14159265358979,-1.5707963267949,-1.5707963267949,0.,0.,            55P     49
1.5707963267949,1.5707963267949,3.14159265358979,                     55P     50
3.14159265358979,3.14159265358979,1.,0.707106781186548,1.,            55P     51
0.707106781186548,1.,0.707106781186548,1.,0.707106781186548,1.,       55P     52
0.225,2.75545529808155D-17,-0.335,0.225,0.225,-0.335,                 55P     53
-1.37772764904077D-17,0.225,-0.335,-0.225,0.225,-0.335,-0.225,        55P     54
0.,-0.335,-0.225,-0.225,-0.335,-1.37772764904077D-17,-0.225,          55P     55
-0.335,0.225,-0.225,-0.335,0.225,-2.75545529808155D-17,-0.335,        55P     56
-3.14159265358979,3.14159265358979,0.,0.,0.;                          55P     57
126,1,1,0,0,1,0,-8.66666666666667,-8.66666666666667,0.,0.,1.,1.,      57P     58
0.225,0.,-0.335,0.225,0.,-2.285,-8.66666666666667,0.,0.,0.,0.;        57P     59
126,8,2,0,1,0,0,-3.14159265358979,-3.14159265358979,                  59P     60
-3.14159265358979,-1.5707963267949,-1.5707963267949,0.,0.,            59P     61
1.5707963267949,1.5707963267949,3.14159265358979,                     59P     62
3.14159265358979,3.14159265358979,1.,0.707106781186548,1.,            59P     63
0.707106781186548,1.,0.707106781186548,1.,0.707106781186548,1.,       59P     64
0.225,2.75545529808155D-17,-2.285,0.225,0.225,-2.285,                 59P     65
-1.37772764904077D-17,0.225,-2.285,-0.225,0.225,-2.285,-0.225,        59P     66
0.,-2.285,-0.225,-0.225,-2.285,-1.37772764904077D-17,-0.225,          59P     67
-2.285,0.225,-0.225,-2.285,0.225,-2.75545529808155D-17,-2.285,        59P     68
-3.14159265358979,3.14159265358979,0.,0.,0.;                          59P     69
126,4,2,0,0,0,0,0.,0.,0.,1.5707963267949,1.5707963267949,             61P     70
3.14159265358979,3.14159265358979,3.14159265358979,1.,                61P     71
0.707106781186547,1.,0.707106781186548,1.,-0.14,0.,-0.135,-0.14,      61P     72
0.14,-0.135,-8.57252759403147D-18,0.14,-0.135,0.14,0.14,-0.135,       61P     73
0.14,1.71450551880629D-17,-0.135,0.,3.14159265358979,0.,0.,0.;        61P     74
126,4,2,0,0,0,0,3.14159265358979,3.14159265358979,                    63P     75
3.14159265358979,4.71238898038469,4.71238898038469,                   63P     76
6.28318530717959,6.28318530717959,6.28318530717959,1.,                63P     77
0.707106781186548,1.,0.707106781186547,1.,0.14,                       63P     78
1.71450551880629D-17,-0.135,0.14,-0.14,-0.135,                        63P     79
2.57175827820944D-17,-0.14,-0.135,-0.14,-0.14,-0.135,-0.14,           63P     80
-3.42901103761259D-17,-0.135,3.14159265358979,6.28318530717959,       63P     81
0.,0.,0.;                                                             63P     82
126,4,2,0,0,0,0,0.,0.,0.,1.5707963267949,1.5707963267949,             65P     83
3.14159265358979,3.14159265358979,3.14159265358979,1.,                65P     84
0.707106781186548,1.,0.707106781186548,1.,-0.225,0.,-0.335,           65P     85
-0.225,-0.225,-0.335,-1.37772764904077D-17,-0.225,-0.335,0.225,       65P     86
-0.225,-0.335,0.225,-2.75545529808155D-17,-0.335,0.,                  65P     87
3.14159265358979,0.,0.,0.;                                            65P     88
126,4,2,0,0,0,0,3.14159265358979,3.14159265358979,                    67P     89
3.14159265358979,4.71238898038469,4.71238898038469,                   67P     90
6.28318530717959,6.28318530717959,6.28318530717959,1.,                67P     91
0.707106781186548,1.,0.707106781186548,1.,0.225,                      67P     92
-2.75545529808155D-17,-0.335,0.225,0.225,-0.335,                      67P     93
4.13318294712232D-17,0.225,-0.335,-0.225,0.225,-0.335,-0.225,         67P     94
5.51091059616309D-17,-0.335,3.14159265358979,6.28318530717959,        67P     95
0.,0.,0.;                                                             67P     96
126,1,1,0,0,1,0,-0.965836169426699,-0.965836169426699,                69P     97
2.38106040155756D-17,2.38106040155756D-17,1.,1.,0.14,0.,-0.135,       69P     98
0.225,0.,-0.335,-0.965836169426699,2.38106040155756D-17,0.,0.,        69P     99
0.;                                                                   69P    100
128,1,8,1,2,0,1,0,0,1,0.,0.,15.25,15.25,-3.14159265358979,            71P    101
-3.14159265358979,-3.14159265358979,-1.5707963267949,                 71P    102
-1.5707963267949,0.,0.,1.5707963267949,1.5707963267949,               71P    103
3.14159265358979,3.14159265358979,3.14159265358979,1.,1.,             71P    104
0.707106781186548,0.707106781186548,1.,1.,0.707106781186548,          71P    105
0.707106781186548,1.,1.,0.707106781186548,0.707106781186548,1.,       71P    106
1.,0.707106781186548,0.707106781186548,1.,1.,0.14,0.,-0.135,          71P    107
0.14,0.,2.,0.14,-0.14,-0.135,0.14,-0.14,2.,0.,-0.14,-0.135,0.,        71P    108
-0.14,2.,-0.14,-0.14,-0.135,-0.14,-0.14,2.,-0.14,0.,-0.135,           71P    109
-0.14,0.,2.,-0.14,0.14,-0.135,-0.14,0.14,2.,0.,0.14,-0.135,0.,        71P    110
0.14,2.,0.14,0.14,-0.135,0.14,0.14,2.,0.14,0.,-0.135,0.14,0.,2.,      71P    111
0.,15.25,-3.14159265358979,3.14159265358979;                          71P    112
128,1,1,1,1,0,0,1,0,0,-0.141,-0.141,0.141,0.141,-0.141,-0.141,        73P    113
0.141,0.141,1.,1.,1.,1.,-0.141,-0.141,2.,0.141,-0.141,2.,-0.141,      73P    114
0.141,2.,0.141,0.141,2.,-0.141,0.141,-0.141,0.141;                    73P    115
128,1,1,1,1,0,0,1,0,0,-0.141,-0.141,0.141,0.141,-0.141,-0.141,        75P    116
0.141,0.141,1.,1.,1.,1.,0.141,-0.141,-0.135,-0.141,-0.141,            75P    117
-0.135,0.141,0.141,-0.135,-0.141,0.141,-0.135,-0.141,0.141,           75P    118
-0.141,0.141;                                                         75P    119
128,1,8,1,2,0,1,0,0,1,0.,0.,8.66666666666667,8.66666666666667,        77P    120
-3.14159265358979,-3.14159265358979,-3.14159265358979,                77P    121
-1.5707963267949,-1.5707963267949,0.,0.,1.5707963267949,              77P    122
1.5707963267949,3.14159265358979,3.14159265358979,                    77P    123
3.14159265358979,1.,1.,0.707106781186548,0.707106781186548,1.,        77P    124
1.,0.707106781186548,0.707106781186548,1.,1.,0.707106781186548,       77P    125
0.707106781186548,1.,1.,0.707106781186548,0.707106781186548,1.,       77P    126
1.,0.225,0.,-0.335,0.225,0.,-2.285,0.225,0.225,-0.335,0.225,          77P    127
0.225,-2.285,0.,0.225,-0.335,0.,0.225,-2.285,-0.225,0.225,            77P    128
-0.335,-0.225,0.225,-2.285,-0.225,0.,-0.335,-0.225,0.,-2.285,         77P    129
-0.225,-0.225,-0.335,-0.225,-0.225,-2.285,0.,-0.225,-0.335,0.,        77P    130
-0.225,-2.285,0.225,-0.225,-0.335,0.225,-0.225,-2.285,0.225,0.,       77P    131
-0.335,0.225,0.,-2.285,0.,8.66666666666667,-3.14159265358979,         77P    132
3.14159265358979;                                                     77P    133
128,1,1,1,1,0,0,1,0,0,-0.226,-0.226,0.226,0.226,-0.226,-0.226,        79P    134
0.226,0.226,1.,1.,1.,1.,-0.226,-0.226,-0.335,0.226,-0.226,            79P    135
-0.335,-0.226,0.226,-0.335,0.226,0.226,-0.335,-0.226,0.226,           79P    136
-0.226,0.226;                                                         79P    137
128,1,1,1,1,0,0,1,0,0,-0.226,-0.226,0.226,0.226,-0.226,-0.226,        81P    138
0.226,0.226,1.,1.,1.,1.,0.226,-0.226,-2.285,-0.226,-0.226,            81P    139
-2.285,0.226,0.226,-2.285,-0.226,0.226,-2.285,-0.226,0.226,           81P    140
-0.226,0.226;                                                         81P    141
128,1,1,1,1,0,0,1,0,0,-0.141,-0.141,0.141,0.141,-0.141,-0.141,        83P    142
0.141,0.141,1.,1.,1.,1.,-0.141,-0.141,-0.135,0.141,-0.141,            83P    143
-0.135,-0.141,0.141,-0.135,0.141,0.141,-0.135,-0.141,0.141,           83P    144
-0.141,0.141;                                                         83P    145
128,1,1,1,1,0,0,1,0,0,-0.226,-0.226,0.226,0.226,-0.226,-0.226,        85P    146
0.226,0.226,1.,1.,1.,1.,0.226,-0.226,-0.335,-0.226,-0.226,            85P    147
-0.335,0.226,0.226,-0.335,-0.226,0.226,-0.335,-0.226,0.226,           85P    148
-0.226,0.226;                                                         85P    149
128,1,8,1,2,0,1,0,0,1,-2.38106040155756D-17,                          87P    150
-2.38106040155756D-17,0.965836169426699,0.965836169426699,            87P    151
-3.14159265358979,-3.14159265358979,-3.14159265358979,                87P    152
-1.5707963267949,-1.5707963267949,0.,0.,1.5707963267949,              87P    153
1.5707963267949,3.14159265358979,3.14159265358979,                    87P    154
3.14159265358979,1.,1.,0.707106781186548,0.707106781186548,1.,        87P    155
1.,0.707106781186548,0.707106781186548,1.,1.,0.707106781186548,       87P    156
0.707106781186548,1.,1.,0.707106781186548,0.707106781186548,1.,       87P    157
1.,0.14,0.,-0.135,0.225,0.,-0.335,0.14,0.14,-0.135,0.225,0.225,       87P    158
-0.335,0.,0.14,-0.135,0.,0.225,-0.335,-0.14,0.14,-0.135,-0.225,       87P    159
0.225,-0.335,-0.14,0.,-0.135,-0.225,0.,-0.335,-0.14,-0.14,            87P    160
-0.135,-0.225,-0.225,-0.335,0.,-0.14,-0.135,0.,-0.225,-0.335,         87P    161
0.14,-0.14,-0.135,0.225,-0.225,-0.335,0.14,0.,-0.135,0.225,0.,        87P    162
-0.335,-2.38106040155756D-17,0.965836169426699,                       87P    163
-3.14159265358979,3.14159265358979;                                   87P    164
502,2,0.14,1.71450551880629D-17,-0.135,0.14,                          89P    165
1.71450551880629D-17,2.;                                              89P    166
502,2,0.225,2.75545529808155D-17,-0.335,0.225,                        91P    167
2.75545529808155D-17,-2.285;                                          91P    168
502,4,-0.14,0.,-0.135,0.14,0.,-0.135,-0.225,0.,-0.335,0.225,0.,       93P    169
-0.335;                                                               93P    170
504,3,49,89,1,89,1,51,89,1,89,2,53,89,2,89,2;                         95P    171
504,3,55,91,1,91,1,57,91,1,91,2,59,91,2,91,2;                         97P    172
504,5,61,93,1,93,2,63,93,2,93,1,65,93,3,93,4,67,93,4,93,3,69,93,      99P    173
2,93,4;                                                               99P    174
406,1,2H58;                                                          101P    175
406,1,2H5C;                                                          103P    176
406,1,2H60;                                                          105P    177
406,2,0,1H0;                                                         107P    178
314,100.,100.,100.,;                                                 109P    179
S      1G      3D    110P    179                                        T      1
