<svg id="Layer_1" data-name="Layer 1" xmlns="http://www.w3.org/2000/svg" viewBox="0 0 2267.72 1700.79"><defs><style>.cls-1{font-size:316px;}.cls-1,.cls-8{fill:#9a1d21;}.cls-1,.cls-2{font-family:SegoeUI-Semilight, Segoe UI;}.cls-2{font-size:158px;fill:#214866;}.cls-3{letter-spacing:-0.02em;}.cls-4{letter-spacing:0.02em;}.cls-5{letter-spacing:0em;}.cls-6{letter-spacing:-0.01em;}.cls-7{letter-spacing:0em;}.cls-9{fill:#214865;}.cls-10{fill:#dfe0e0;}</style></defs><title>Artboard 1</title><text class="cls-1" transform="translate(464.32 1211.63) scale(1.12 1)">Nextflow</text><text class="cls-2" transform="translate(1194.01 1362.43) scale(1.03 1)">S<tspan class="cls-3" x="81.24" y="0">o</tspan><tspan class="cls-4" x="168.95" y="0">f</tspan><tspan class="cls-5" x="218.33" y="0">twa</tspan><tspan class="cls-6" x="458.26" y="0">r</tspan><tspan class="cls-7" x="509.72" y="0">e</tspan></text><path class="cls-8" d="M1470.66,696.71c29.79-16,48.08-32.87,48.34-50.12v-.35c.06-20.73-26.94-41.78-68.19-59.39-92.33-38.26-193.26-94.38-316.25-164.36.49.34,1,.72,1.49,1.09,2.13,1.57,4.23,3.13,6.34,4.73.78.56,1.53,1.15,2.28,1.71,2.82,2.13,5.6,4.23,8.35,6.37l.77.61c2.43,1.89,4.9,3.85,7.29,5.75.76.63,1.53,1.21,2.29,1.84,2,1.61,4,3.18,5.9,4.77l2.12,1.76q7.74,6.36,15,12.74l2,1.7c1.83,1.63,3.64,3.22,5.44,4.84.63.58,1.3,1.17,1.92,1.76,2.25,2,4.43,4,6.61,6a2.74,2.74,0,0,0,.3.28q3.36,3.19,6.68,6.38c.59.55,1.12,1.09,1.68,1.65,1.65,1.59,3.28,3.2,4.87,4.8.62.6,1.23,1.19,1.83,1.8l5.32,5.45c.29.32.54.58.85.88,2,2.1,4,4.17,5.91,6.28.52.53,1,1.08,1.52,1.65,1.45,1.56,2.85,3.11,4.22,4.68.62.66,1.2,1.32,1.78,2,1.43,1.59,2.81,3.2,4.19,4.79.44.51.88,1,1.27,1.49,1.61,1.87,3.16,3.74,4.71,5.58l5.37,6.57-.1,0c.29.39.65.81,1,1.2,45.15,58.16,63.25,113.52,55.93,171.19a188.89,188.89,0,0,1-4.61,23.32h0c-.33,1.18-.65,2.36-1,3.52-.09.41-.22.81-.31,1.22-.22.6-.38,1.2-.56,1.79-.28,1-.58,1.94-.93,2.93-.18.65-.39,1.33-.62,2-.34,1-.7,2.07-1.05,3.09-.18.58-.38,1.17-.61,1.75-.56,1.57-1.15,3.12-1.73,4.71-.23.56-.48,1.11-.69,1.7-.42,1.09-.88,2.2-1.33,3.32l-.78,1.86c-.48,1.11-1,2.19-1.45,3.28-.24.6-.54,1.2-.81,1.81-.55,1.23-1.09,2.41-1.7,3.63-.24.48-.45.94-.69,1.42-1.68,3.46-3.5,6.92-5.44,10.43-.23.4-.46.79-.68,1.19-.74,1.31-1.52,2.64-2.27,3.95-.36.56-.71,1.17-1.07,1.73-.67,1.15-1.39,2.29-2.08,3.44a11.83,11.83,0,0,0-.73,1.16,8.31,8.31,0,0,1-.49.72c-1,1.5-2,3-3,4.52l-.4.62c-2.24,3.27-4.58,6.56-7.06,9.83-.31.41-.6.78-.92,1.18s-.53.72-.82,1.1c-1.08,1.36-2.16,2.75-3.25,4.1l-1.36,1.67c-1,1.27-2.06,2.48-3.14,3.76-.45.54-.94,1.1-1.41,1.65q-2.2,2.54-4.52,5.09c-.45.5-1,1-1.42,1.5-1.11,1.23-2.25,2.44-3.43,3.66-.69.7-1.35,1.38-2,2.08-1,1.06-2.07,2.09-3.09,3.12-.42.4-.78.79-1.18,1.17C1330.89,776.66,1403.89,729.87,1470.66,696.71Z"/><path class="cls-9" d="M784,291.55c-28.82,7.14-39.67,29.41-33.71,61.32,0,.08,0,.17,0,.26l0,.31a103.49,103.49,0,0,0,9,23.21c.5,1,1,2,1.61,3.05,1,1.79,2.06,3.63,3.19,5.45a109.8,109.8,0,0,0,7.55,10.78,113.94,113.94,0,0,0,21.67,20.81c18.52,13,124.62,93.95,219.29,160.9,73.18-29.48,144.63-47.68,219.81-55-.29-.36-.6-.71-.89-1.08-.5-.56-1-1.12-1.47-1.72-1-1.12-1.94-2.27-3-3.39-.56-.63-1.06-1.24-1.62-1.88-1-1.08-2-2.18-3-3.29l-1.74-1.92-3-3.25c-.58-.65-1.17-1.3-1.8-2-1-1.08-2.08-2.18-3.09-3.29-.63-.62-1.21-1.25-1.86-1.89-1.09-1.12-2.17-2.27-3.3-3.39l-1.77-1.77c-1.22-1.26-2.52-2.52-3.8-3.78-.45-.47-.91-.93-1.4-1.41-3.52-3.45-7.17-6.94-10.91-10.42-.44-.38-.9-.84-1.38-1.26q-2.09-1.95-4.24-3.88l-2-1.81c-1.26-1.12-2.53-2.25-3.76-3.36-.79-.69-1.53-1.32-2.28-2l-3.68-3.2-2.4-2.06c-1.22-1-2.45-2.1-3.7-3.14-.8-.69-1.66-1.41-2.53-2.11-1.23-1-2.47-2-3.67-3.05-.86-.72-1.73-1.43-2.58-2.13l-3.82-3.08c-.88-.73-1.77-1.42-2.63-2.13l-4-3.14-2.57-2c-1.44-1.13-2.84-2.22-4.3-3.33-.83-.62-1.6-1.23-2.37-1.83l-5-3.77c-.62-.46-1.22-.94-1.84-1.41q-6.92-5.16-14.12-10.32l-2.13-1.53-5.07-3.58c-.92-.64-1.8-1.28-2.77-1.93-1.52-1.08-3-2.12-4.58-3.2-1-.69-2-1.39-3-2.08-1.48-1-3-2-4.46-3-1-.72-2.11-1.43-3.2-2.15-1.43-1-2.94-2-4.38-2.94-1.13-.75-2.22-1.48-3.36-2.21-1.45-1-3-2-4.41-2.88-1.15-.76-2.29-1.5-3.45-2.24l-4.43-2.84c-1.17-.75-2.33-1.51-3.53-2.25l-4.51-2.86c-1.16-.74-2.34-1.48-3.52-2.2l-4.67-2.89-3.51-2.16c-1.65-1-3.33-2-5-3l-3.3-2-7.38-4.4c-.29-.16-.57-.33-.78-.46-23.46-13.17-65.84-36-118.8-54.32C860.26,292.56,812.7,284.43,784,291.55Z"/><path class="cls-10" d="M1274,732.43c-52.58-9-196.78-82.82-330.14-187.41-70.4-52.2-135.68-102.08-149.09-112,0,0-.06-.05-.1-.09-1.25-.93-2.52-1.93-3.78-2.92-.2-.2-.44-.38-.64-.55-1.2-1-2.37-2-3.53-3-.26-.2-.47-.41-.71-.61-1.17-1-2.31-2.07-3.42-3.11-.2-.18-.38-.36-.52-.51-1.13-1.09-2.25-2.14-3.37-3.28l-.15-.13c-.72-.75-1.45-1.49-2.13-2.23C839.91,547,854.14,684,824.16,810.07c-.1.48-.18.93-.27,1.39-19.37,60-47.49,208.29,184.62,143.3,6.53-1.83,13.18-4,20.27-6.49,12.52-4.39,25.4-9.51,38.39-15.08l.7-.28,0,0a769.12,769.12,0,0,0,101.62-53.25q8.44-5.28,16.7-10.48c1.65-1.09,3.32-2.2,4.94-3.29.18-.13.35-.22.52-.34,1.63-1.14,3.24-2.26,4.85-3.4.06-.06.16-.1.25-.18,3.26-2.36,6.5-4.75,9.61-7.2l.39-.29,4.56-3.64a2.44,2.44,0,0,1,.32-.26c1.47-1.21,2.91-2.42,4.37-3.65a.79.79,0,0,1,.18-.14c1.41-1.21,2.77-2.41,4.12-3.6.27-.26.55-.48.84-.77,1.3-1.14,2.56-2.29,3.8-3.44.33-.29.59-.56.91-.85,1-.94,2-1.92,3-2.87.33-.35.64-.64,1-.94,1.14-1.08,2.27-2.2,3.35-3.29l1.26-1.3c1.08-1.09,2.09-2.15,3.12-3.22l1.14-1.25c.79-.84,1.57-1.69,2.35-2.54l1.17-1.28q1.47-1.67,2.9-3.31l1.11-1.29c1-1.18,2-2.33,3-3.52a6.27,6.27,0,0,0,.54-.66c1-1.23,2-2.4,2.91-3.61.13-.16.27-.32.4-.51,1.09-1.38,2.2-2.81,3.28-4.26a.06.06,0,0,1,0,0c2.07-2.74,4.06-5.54,6-8.34a.58.58,0,0,0,.13-.19c.95-1.38,1.87-2.78,2.79-4.16,0,0,0,0,.06-.06l2-3.1c.78-1.26,1.57-2.51,2.31-3.76.24-.46.54-.91.83-1.36.91-1.59,1.82-3.16,2.73-4.78.32-.56.62-1.14,1-1.72.57-1.08,1.15-2.14,1.71-3.19.34-.68.71-1.37,1.07-2.06.51-1,1-2,1.51-3l1-1.94c.66-1.35,1.25-2.7,1.91-4,.11-.3.24-.6.38-.91.72-1.57,1.4-3.14,2-4.68.27-.5.44-1,.68-1.51l1.39-3.51c.2-.5.39-1,.58-1.49.52-1.3,1-2.59,1.45-3.89.12-.32.22-.6.34-.94q.88-2.46,1.65-4.87a4.5,4.5,0,0,1,.21-.58c.31-1.06.63-2.09,1-3.16C1288.6,736.42,1282.72,734.94,1274,732.43Z"/></svg>